<svg width="18" height="18" viewBox="0 0 18 18" fill="none" xmlns="http://www.w3.org/2000/svg">
<path d="M13.32 17C10.0537 16.9963 6.92218 15.6971 4.61254 13.3875C2.30289 11.0778 1.00371 7.94633 1 4.68C1.00106 3.70433 1.38911 2.76892 2.07902 2.07902C2.76892 1.38911 3.70433 1.00106 4.68 1C4.88544 0.999841 5.09052 1.01724 5.293 1.052C5.49024 1.08449 5.6843 1.13401 5.873 1.2C6.00087 1.24443 6.11537 1.32058 6.20579 1.42132C6.29622 1.52206 6.3596 1.64409 6.39 1.776L7.49 6.547C7.52004 6.67618 7.51748 6.81081 7.48257 6.93876C7.44766 7.06671 7.38148 7.18398 7.29 7.28C7.18 7.394 7.178 7.396 6.19 7.915C6.9823 9.64064 8.36559 11.026 10.09 11.821C10.609 10.828 10.612 10.821 10.726 10.721C10.8226 10.63 10.94 10.5642 11.068 10.5293C11.196 10.4945 11.3306 10.4916 11.46 10.521L16.231 11.621C16.3631 11.6513 16.4853 11.7146 16.5863 11.805C16.6872 11.8954 16.7635 12.01 16.808 12.138C16.8737 12.3284 16.9229 12.5241 16.955 12.723C16.9864 12.9204 17.0014 13.1201 17 13.32C16.9989 14.2957 16.6109 15.2311 15.921 15.921C15.2311 16.6109 14.2957 16.9989 13.32 17" stroke="#333333" stroke-width="2" stroke-miterlimit="10"/>
</svg>
