<svg width="30" height="30" viewBox="0 0 30 30" fill="none" xmlns="http://www.w3.org/2000/svg">
<path d="M15 30C23.2843 30 30 23.2843 30 15C30 6.71573 23.2843 0 15 0C6.71573 0 0 6.71573 0 15C0 23.2843 6.71573 30 15 30Z" fill="#FEE500"/>
<path d="M14.529 5.37891C9.44196 5.37891 5.31897 9.21091 5.31897 13.9379C5.33236 15.2884 5.67276 16.6154 6.31104 17.8056C6.94931 18.9958 7.86646 20.0136 8.98398 20.7719V24.5279C8.98415 24.5539 8.99143 24.5793 9.00504 24.6014C9.01864 24.6235 9.03804 24.6415 9.06113 24.6533C9.08422 24.6652 9.11009 24.6705 9.13599 24.6686C9.16188 24.6668 9.18679 24.6579 9.20798 24.6429L12.508 22.2889C13.174 22.4275 13.8526 22.4972 14.533 22.4969C19.62 22.4969 23.743 18.6649 23.743 13.9379C23.743 9.21091 19.616 5.37891 14.529 5.37891ZM11.78 16.2259C12.2169 16.2212 12.642 16.083 12.9981 15.8297C13.3542 15.5764 13.6242 15.2202 13.772 14.8089H15.162C15.0023 15.5914 14.5798 16.2959 13.9646 16.8052C13.3494 17.3145 12.5786 17.5981 11.78 17.6089C10.8252 17.6089 9.90954 17.2296 9.23441 16.5545C8.55927 15.8794 8.17996 14.9637 8.17996 14.0089C8.17996 13.0541 8.55927 12.1384 9.23441 11.4633C9.90954 10.7882 10.8252 10.4089 11.78 10.4089C12.5786 10.4197 13.3494 10.7033 13.9646 11.2126C14.5798 11.722 15.0023 12.4264 15.162 13.2089H13.772C13.6242 12.7977 13.3542 12.4415 12.9981 12.1882C12.642 11.9349 12.2169 11.7966 11.78 11.7919C11.2062 11.813 10.663 12.0558 10.2646 12.4691C9.86615 12.8825 9.64352 13.4343 9.64352 14.0084C9.64352 14.5825 9.86615 15.1343 10.2646 15.5477C10.663 15.961 11.2062 16.2038 11.78 16.2249V16.2259ZM20.747 17.6089H19.456V14.4329C19.4865 14.1516 19.4089 13.8692 19.239 13.6429C19.1554 13.5674 19.0576 13.5094 18.9513 13.4724C18.845 13.4353 18.7323 13.4198 18.62 13.4269C18.4687 13.4275 18.3194 13.4616 18.183 13.5269C18.0437 13.5929 17.9202 13.688 17.821 13.8059C17.7105 13.9397 17.626 14.093 17.572 14.2579C17.5074 14.4554 17.476 14.6622 17.479 14.8699V17.6129H16.185V10.2689H17.485V13.0399C17.637 12.887 17.8109 12.7576 18.001 12.6559C18.2779 12.5087 18.5874 12.4337 18.901 12.4379C19.1531 12.421 19.406 12.4578 19.6429 12.5459C19.8797 12.6339 20.0952 12.7713 20.275 12.9489C20.6185 13.3843 20.786 13.9329 20.744 14.4859L20.747 17.6089Z" fill="#070304"/>
</svg>
